<?xml version="1.0" standalone="no"?>
<!DOCTYPE svg PUBLIC "-//W3C//DTD SVG 20010904//EN"
 "http://www.w3.org/TR/2001/REC-SVG-20010904/DTD/svg10.dtd">
<svg version="1.0" xmlns="http://www.w3.org/2000/svg"
 width="64.000000pt" height="64.000000pt" viewBox="0 0 64.000000 64.000000"
 preserveAspectRatio="xMidYMid meet">

<g transform="translate(0.000000,64.000000) scale(0.100000,-0.100000)"
fill="#000000" stroke="none">
<path d="M295 505 c-5 -2 -27 -6 -47 -10 -43 -7 -95 -47 -109 -82 -11 -31 4
-61 37 -73 35 -14 84 13 84 45 -1 6 -5 2 -11 -7 -18 -32 -48 -41 -75 -23 -30
19 -30 34 -2 70 34 43 92 65 175 65 l73 0 -36 -47 c-19 -25 -47 -69 -61 -97
-14 -28 -36 -66 -50 -84 -21 -28 -27 -31 -45 -21 -64 34 -118 27 -118 -15 0
-14 5 -28 12 -32 19 -12 96 -8 113 6 12 10 24 10 61 0 95 -27 167 -12 207 42
17 23 18 31 8 56 -7 16 -24 35 -39 42 l-27 12 35 12 c20 6 41 23 50 39 15 27
14 29 -18 58 -18 16 -39 29 -48 29 -8 0 -13 3 -11 8 5 7 -139 14 -158 7z m193
-41 c48 -33 6 -94 -65 -94 -54 0 -55 -13 -3 -29 110 -33 69 -141 -54 -141 -25
0 -56 4 -71 10 l-26 10 33 44 c18 24 56 82 83 129 28 49 57 87 65 87 9 0 26
-7 38 -16z m-283 -226 c14 -6 25 -15 25 -19 0 -19 -84 -27 -95 -9 -11 18 3 40
24 40 11 0 32 -5 46 -12z"/>
</g>
</svg>
